<svg xmlns="http://www.w3.org/2000/svg" xmlns:xlink="http://www.w3.org/1999/xlink" width="144" height="161.401" viewBox="0 0 144 161.401">
  <defs fill="#ffffff">
    <radialGradient id="radial-gradient" cx="0.5" cy="0.5" r="0.5" gradientTransform="matrix(-0.02, 1, -1.295, -0.026, 1.157, 0.013)" gradientUnits="objectBoundingBox" fill="#ffffff">
      <stop offset="0" stop-color="#dbdbdb" fill="#ffffff"/>
      <stop offset="1" stop-color="#fff1e5" fill="#ffffff"/>
    </radialGradient>
    <filter id="Exclusion_1" x="0" y="0" width="144" height="161.401" filterUnits="userSpaceOnUse" fill="#ffffff">
      <feOffset dx="3" dy="3" input="SourceAlpha" fill="#ffffff"/>
      <feGaussianBlur stdDeviation="3" result="blur" fill="#ffffff"/>
      <feFlood flood-opacity="0.161" fill="#ffffff"/>
      <feComposite operator="in" in2="blur" fill="#ffffff"/>
      <feComposite in="SourceGraphic" fill="#ffffff"/>
    </filter>
  </defs>
  <g transform="matrix(1, 0, 0, 1, 0, 0)" filter="url(#Exclusion_1)">
    <path id="Exclusion_1-2" data-name="Exclusion 1" d="M84.4,158.4c-.172,0-11.2-6.224-31.9-18L21,122.4V51L52.3,33.1C67.414,24.351,83.678,15,84,15H84c.322,0,10.986,5.922,31.7,17.6l31.2,17.8.1,36.2v36.3l-5.2,3-5.3,3L136,93.2l-.5-35.6-25-14.3c-14.236-8.209-25.414-14.4-26-14.4-.482,0-11.7,6.116-26,14.3l-25,14.3-.3,29L33,115.6l25.7,14.7L84.4,145l13.5-7.8,13.6-7.8V71.7L102,66.2c-1.533-.885-3.145-1.813-4.711-2.715l-.048-.028c-3.7-2.131-7.194-4.144-8.741-5.057l-4.1-2.3L71,63.8,57.5,71.5l-.3,15.1-.3,15.2,13.7,7.7c7.691,4.329,11.928,6.713,14.234,6.713,2.653,0,2.758-3.246,2.966-9.714l.3-8.6-6.6-3L75,92V78l6.6,3c3.382,1.483,5.329,2.237,6.588,2.237A2.572,2.572,0,0,0,89.9,82.6a39.52,39.52,0,0,1,5.4-3L99,77.9v44.9l-7.4,4-7.4,4.1L64.6,119.7,45,108.5l.2-22,.3-21.9,19-10.8c11.052-6.316,19.421-10.9,19.9-10.9s8.948,4.6,19.7,10.7L123,64.4v72.3l-19.2,10.9C93.2,153.556,84.5,158.4,84.4,158.4Z" transform="translate(-15 -9)" fill="#ffffff"/>
  </g>
</svg>